<mxfile host="app.diagrams.net" modified="2023-08-03T08:51:29.351Z" agent="Mozilla/5.0 (Macintosh; Intel Mac OS X 10_15_7) AppleWebKit/605.1.15 (KHTML, like Gecko) Version/15.6.1 Safari/605.1.15" version="21.6.6" etag="V1H7lZR0LWfOUpvw3ckF" type="github">
  <diagram name="Page-1" id="8G3IAVVgl47ZsxA-mIHz">
    <mxGraphModel>
      <root>
        <mxCell id="0" />
        <mxCell id="1" parent="0" />
      </root>
    </mxGraphModel>
  </diagram>
</mxfile>
